{"title":"The.Supergrass.1985.DVDRip.x264.Iou1","uid":9104934,"size":1471558316,"categoryP":"video","categoryS":"movies_dvdr","magnet":"?xt=urn:btih:5aa1595bd64069616f3492fd0c66e78c264132c7&amp;dn=The.Supergrass.1985.DVDRip.x264.Iou1&amp;tr=udp%3A%2F%2Ftracker.openbittorrent.com%3A80&amp;tr=udp%3A%2F%2Fopen.demonii.com%3A1337&amp;tr=udp%3A%2F%2Ftracker.coppersurfer.tk%3A6969&amp;tr=udp%3A%2F%2Fexodus.desync.com%3A6969","seeders":1,"leechers":0,"uploader":"jaybee211","files":-1,"time":1382839744,"description":"Genre                                    : Comedy\nFormat                                   : MPEG-4\nFormat profile                           : Base Media / Version 2\nCodec ID                                 : mp42\nFile size                                : 1.37 GiB\nDuration                                 : 1h 33mn\nOverall bit rate mode                    : Variable\nOverall bit rate                         : 2 092 Kbps\n\nVideo\nID                                       : 1\nFormat                                   : AVC\nFormat/Info                              : Advanced Video Codec\nFormat profile                           : &lt;a class=&quot;__cf_email__&quot; href=&quot;/cdn-cgi/l/email-protection&quot; data-cfemail=&quot;e1a9888689a1add2cfd1&quot;&gt;[email&amp;#160;protected]&lt;/a&gt;&lt;script cf-hash='f9e31' type=&quot;text/javascript&quot;&gt;\n/* &lt;![CDATA[ */!function(){try{var t=&quot;currentScript&quot;in document?document.currentScript:function(){for(var t=document.getElementsByTagName(&quot;script&quot;),e=t.length;e--;)if(t[e].getAttribute(&quot;cf-hash&quot;))return t[e]}();if(t&amp;&amp;t.previousSibling){var e,r,n,i,c=t.previousSibling,a=c.getAttribute(&quot;data-cfemail&quot;);if(a){for(e=&quot;&quot;,r=parseInt(a.substr(0,2),16),n=2;a.length-n;n+=2)i=parseInt(a.substr(n,2),16)^r,e+=String.fromCharCode(i);e=document.createTextNode(e),c.parentNode.replaceChild(e,c)}}}catch(u){}}();/* ]]&gt; */&lt;/script&gt;\nFormat settings, CABAC                   : Yes\nFormat settings, ReFrames                : 5 frames\nCodec ID                                 : avc1\nCodec ID/Info                            : Advanced Video Coding\nDuration                                 : 1h 33mn\nBit rate mode                            : Variable\nBit rate                                 : 1 927 Kbps\nWidth                                    : 720 pixels\nHeight                                   : 496 pixels\nDisplay aspect ratio                     : 3:2\nFrame rate mode                          : Variable\nFrame rate                               : 25.000 fps\nMinimum frame rate                       : 8.333 fps\nMaximum frame rate                       : 25.000 fps\nColor space                              : YUV\nChroma subsampling                       : 4:2:0\nBit depth                                : 8 bits\nScan type                                : Progressive\nBits/(Pixel*Frame)                       : 0.216\nStream size                              : 1.26 GiB (92%)\nWriting library                          : x264 core 130 r2273 b3065e6\n\nAudio\nID                                       : 2\nFormat                                   : AAC\nFormat/Info                              : Advanced Audio Codec\nFormat profile                           : LC\nCodec ID                                 : 40\nDuration                                 : 1h 33mn\nBit rate mode                            : Variable\nBit rate                                 : 160 Kbps\nMaximum bit rate                         : 352 Kbps\nChannel(s)                               : 2 channels\nChannel positions                        : Front: L R\nSampling rate                            : 48.0 KHz\nCompression mode                         : Lossy\nDelay relative to video                  : 160ms\nStream size                              : 107 MiB (8%)\nLanguage                                 : English\n\nIMDB. &lt;a href=&quot; http://www.imdb.com/title/tt0090102/&quot; rel=&quot;nofollow&quot; target=&quot;_NEW&quot;&gt; http://www.imdb.com/title/tt0090102/&lt;/a&gt;\n\nStoryline.\nWhile taking a holiday in the country with his mother, Dennis hits on a scheme to impress a girl so that she'll go away on a trip with him as his girlfriend. Although he fails to gain any interest from the girl, the police take a great interest in his story. From this point on, Dennis digs a deeper hole for himself at every turn.\n\nScreens. &lt;a href=&quot; http://bayimg.com/eAbLAAafG&quot; rel=&quot;nofollow&quot; target=&quot;_NEW&quot;&gt; http://bayimg.com/eAbLAAafG&lt;/a&gt;\n\nCovers. &lt;a href=&quot; http://bayimg.com/FABLcAaFg&quot; rel=&quot;nofollow&quot; target=&quot;_NEW&quot;&gt; http://bayimg.com/FABLcAaFg&lt;/a&gt;\n\nEnjoy.","torrent":{"xt":"urn:btih:5aa1595bd64069616f3492fd0c66e78c264132c7","amp;dn":"The.Supergrass.1985.DVDRip.x264.Iou1","amp;tr":["udp%3A%2F%2Ftracker.openbittorrent.com%3A80","udp%3A%2F%2Fopen.demonii.com%3A1337","udp%3A%2F%2Ftracker.coppersurfer.tk%3A6969","udp%3A%2F%2Fexodus.desync.com%3A6969"],"infoHash":"5aa1595bd64069616f3492fd0c66e78c264132c7","infoHashBuffer":{"type":"Buffer","data":[90,161,89,91,214,64,105,97,111,52,146,253,12,102,231,140,38,65,50,199]},"announce":[],"urlList":[]}}